<svg width="185" height="225" viewBox="0 0 185 225" fill="none" xmlns="http://www.w3.org/2000/svg">
<circle cx="161" cy="24" r="24" fill="#FEE979"/>
<path d="M59.5 211H45.5C21.1995 211 1.5 191.301 1.5 167V68C1.5 43.6995 21.1995 24 45.5 24H158" stroke="black" stroke-width="3" stroke-linecap="square" stroke-dasharray="10 10"/>
<g filter="url(#filter0_d_450_4)">
<circle cx="161" cy="24" r="5" fill="#33DCFF"/>
<circle cx="161" cy="24" r="4.5" stroke="white"/>
</g>
<g filter="url(#filter1_d_450_4)">
<path d="M70 207.036C72.6667 208.576 72.6667 212.425 70 213.964L60.25 219.593C57.5833 221.133 54.25 219.208 54.25 216.129L54.25 204.871C54.25 201.792 57.5833 199.867 60.25 201.407L70 207.036Z" fill="#33DCFF"/>
<path d="M69.75 207.469C72.0833 208.816 72.0833 212.184 69.75 213.531L60 219.16C57.6667 220.507 54.75 218.823 54.75 216.129L54.75 204.871C54.75 202.177 57.6667 200.493 60 201.84L69.75 207.469Z" stroke="white"/>
</g>
<defs>
<filter id="filter0_d_450_4" x="153" y="16" width="16" height="16" filterUnits="userSpaceOnUse" color-interpolation-filters="sRGB">
<feFlood flood-opacity="0" result="BackgroundImageFix"/>
<feColorMatrix in="SourceAlpha" type="matrix" values="0 0 0 0 0 0 0 0 0 0 0 0 0 0 0 0 0 0 127 0" result="hardAlpha"/>
<feOffset/>
<feGaussianBlur stdDeviation="1.5"/>
<feComposite in2="hardAlpha" operator="out"/>
<feColorMatrix type="matrix" values="0 0 0 0 0 0 0 0 0 0 0 0 0 0 0 0 0 0 0.54 0"/>
<feBlend mode="normal" in2="BackgroundImageFix" result="effect1_dropShadow_450_4"/>
<feBlend mode="normal" in="SourceGraphic" in2="effect1_dropShadow_450_4" result="shape"/>
</filter>
<filter id="filter1_d_450_4" x="51.25" y="197.865" width="23.75" height="25.2703" filterUnits="userSpaceOnUse" color-interpolation-filters="sRGB">
<feFlood flood-opacity="0" result="BackgroundImageFix"/>
<feColorMatrix in="SourceAlpha" type="matrix" values="0 0 0 0 0 0 0 0 0 0 0 0 0 0 0 0 0 0 127 0" result="hardAlpha"/>
<feOffset/>
<feGaussianBlur stdDeviation="1.5"/>
<feComposite in2="hardAlpha" operator="out"/>
<feColorMatrix type="matrix" values="0 0 0 0 0 0 0 0 0 0 0 0 0 0 0 0 0 0 0.54 0"/>
<feBlend mode="normal" in2="BackgroundImageFix" result="effect1_dropShadow_450_4"/>
<feBlend mode="normal" in="SourceGraphic" in2="effect1_dropShadow_450_4" result="shape"/>
</filter>
</defs>
</svg>
