<svg width="233" height="495" viewBox="0 0 233 495" fill="none" xmlns="http://www.w3.org/2000/svg">
<path d="M0 27.2776C0 12.2126 12.2124 0 27.2776 0L205.384 0C220.451 0 232.662 12.2126 232.662 27.2776L232.662 466.929C232.662 481.994 220.451 494.206 205.384 494.206L27.2776 494.206C12.2124 494.206 0 481.994 0 466.929L0 27.2776Z" fill="#262626"/>
<mask id="mask0_426_461" style="mask-type:alpha" maskUnits="userSpaceOnUse" x="4" y="4" width="224" height="486">
<path d="M205.384 4.81366L27.2774 4.81366C14.8709 4.81366 4.81348 14.8711 4.81348 27.2776L4.81348 466.929C4.81348 479.335 14.8709 489.393 27.2774 489.393H205.384C217.791 489.393 227.848 479.335 227.848 466.929L227.848 27.2776C227.848 14.8711 217.791 4.81366 205.384 4.81366Z" fill="white"/>
</mask>
<g mask="url(#mask0_426_461)">
<path d="M227.848 4.81366L4.81348 4.81366L4.81348 489.393H227.848L227.848 4.81366Z" fill="white"/>
</g>
<path opacity="0.01" d="M227.849 6.4184L4.81396 6.4184L4.81396 32.8937L227.849 32.8937V6.4184Z" fill="black"/>
<path opacity="0.01" d="M219.525 14.2406L203.467 14.2406V26.2748H219.525V14.2406Z" fill="#FA3E3E"/>
<path fill-rule="evenodd" clip-rule="evenodd" d="M216.247 16.9483H206.139C205.32 16.9483 204.654 17.6218 204.654 18.4526V22.3637C204.654 23.1945 205.32 23.868 206.139 23.868H216.247C217.074 23.868 217.74 23.1945 217.74 22.3637V18.4526C217.74 17.6218 217.074 16.9483 216.247 16.9483ZM205.248 18.4526C205.248 17.9541 205.649 17.55 206.139 17.55H216.247C216.745 17.55 217.146 17.9541 217.146 18.4526V22.3637C217.146 22.8622 216.745 23.2663 216.247 23.2663H206.139C205.649 23.2663 205.248 22.8622 205.248 22.3637V18.4526ZM219.079 20.2577C219.079 19.7009 218.775 19.2148 218.333 18.9547V21.5608C218.775 21.3007 219.079 20.8145 219.079 20.2577Z" fill="black" fill-opacity="0.38"/>
<path fill-rule="evenodd" clip-rule="evenodd" d="M206.107 18.1517H210.335C210.479 18.1517 210.599 18.4211 210.599 18.7534V22.0629C210.599 22.3952 210.479 22.6646 210.335 22.6646H206.107C205.962 22.6646 205.842 22.3952 205.842 22.0629V18.7534C205.842 18.4211 205.962 18.1517 206.107 18.1517Z" fill="black"/>
<path opacity="0.01" d="M190.379 14.2405H178.484V26.2748H190.379V14.2405Z" fill="#FA3E3E"/>
<path opacity="0.01" d="M202.871 14.2406H190.976V26.2748H202.871V14.2406Z" fill="#FA3E3E"/>
<path d="M197.209 23.3295H197.073L195.862 22.1067C195.822 22.0641 195.83 21.9932 195.878 21.9585C196.247 21.6928 196.688 21.5504 197.145 21.5504C197.603 21.5504 198.036 21.6898 198.405 21.9502C198.453 21.9849 198.461 22.056 198.421 22.0988L197.209 23.3295Z" fill="black"/>
<path opacity="0.2" d="M200.009 20.3392L200.017 20.4823L199.287 21.2196L199.159 21.2268C198.589 20.7647 197.883 20.5135 197.145 20.5135C196.407 20.5135 195.701 20.7678 195.123 21.235L194.995 21.228L194.273 20.4911V20.3481C195.075 19.659 196.086 19.2816 197.145 19.2816C198.204 19.2816 199.207 19.6557 200.009 20.3392Z" fill="black"/>
<path opacity="0.2" d="M201.597 18.7312L201.605 18.8725L200.875 19.6075L200.747 19.6119C199.752 18.7286 198.477 18.2429 197.145 18.2429C195.813 18.2429 194.537 18.7319 193.534 19.6207L193.406 19.6164L192.684 18.8815V18.7403C193.912 17.6258 195.492 17.0109 197.145 17.0109C198.797 17.0109 200.378 17.6224 201.597 18.7312Z" fill="black"/>
<path d="M180.357 21.1604H180.177C179.734 21.1604 179.375 21.5196 179.375 21.9627V22.6145C179.375 23.0576 179.734 23.4168 180.177 23.4168H180.357C180.8 23.4168 181.159 23.0576 181.159 22.6145V21.9627C181.159 21.5196 180.8 21.1604 180.357 21.1604Z" fill="black"/>
<path d="M183.181 19.9568H183.001C182.558 19.9568 182.199 20.316 182.199 20.7591V22.6144C182.199 23.0575 182.558 23.4167 183.001 23.4167H183.181C183.624 23.4167 183.983 23.0575 183.983 22.6144V20.7591C183.983 20.316 183.624 19.9568 183.181 19.9568Z" fill="black"/>
<path d="M186.005 18.4526H185.825C185.382 18.4526 185.023 18.8118 185.023 19.2549V22.6144C185.023 23.0575 185.382 23.4167 185.825 23.4167H186.005C186.448 23.4167 186.807 23.0575 186.807 22.6144V19.2549C186.807 18.8118 186.448 18.4526 186.005 18.4526Z" fill="black"/>
<path opacity="0.2" d="M188.836 17.0986H188.657C188.214 17.0986 187.854 17.4578 187.854 17.9009V22.6143C187.854 23.0574 188.214 23.4166 188.657 23.4166H188.836C189.28 23.4166 189.639 23.0574 189.639 22.6143V17.9009C189.639 17.4578 189.28 17.0986 188.836 17.0986Z" fill="black"/>
<mask id="mask1_426_461" style="mask-type:luminance" maskUnits="userSpaceOnUse" x="15" y="14" width="35" height="13">
<path d="M49.1449 14.4411L15.2437 14.4411V26.4753H49.1449V14.4411Z" fill="white"/>
</mask>
<g mask="url(#mask1_426_461)">
<path d="M44.7628 20.7864V20.3852H44.3616H42.7354L46.2967 18.8257L44.7628 22.4123V20.7864Z" stroke="black"/>
<path d="M19.2329 17.1048C19.1366 17.5861 18.9321 17.9231 18.6432 18.1157C18.3424 18.3202 17.8851 18.4406 17.2834 18.4767L17.0908 18.4887V19.283H19.0404V25.6732H20.0512V17.1048H19.2329ZM22.3426 24.7586C22.3667 24.3253 22.499 23.9523 22.7397 23.6514C22.9684 23.3506 23.3534 23.0377 23.883 22.7127L24.7976 22.1832C26.0973 21.4371 26.7471 20.4984 26.7471 19.3913C26.7471 18.6692 26.4944 18.0796 25.9889 17.5982C25.4835 17.1409 24.8216 16.9122 24.0153 16.9122C23.1248 16.9122 22.4268 17.1529 21.9334 17.6343C21.428 18.1157 21.1873 18.8016 21.1993 19.6681H22.1982C22.1982 18.4406 22.7878 17.8268 23.9913 17.8268C24.5208 17.8268 24.9299 17.9712 25.2308 18.2601C25.5316 18.5489 25.6881 18.9219 25.6881 19.3913C25.6881 19.8245 25.5677 20.1976 25.3391 20.4984C25.1104 20.8113 24.7253 21.1242 24.1838 21.4371L23.1007 22.0629C22.4509 22.448 21.9815 22.8812 21.7168 23.3867C21.44 23.8921 21.2836 24.5058 21.2354 25.2038L21.2113 25.6732H26.8674V24.7586H22.3426ZM28.8034 20.9678V19.7643H27.5879V20.9678H28.8034ZM28.8034 25.6732V24.4697H27.5879V25.6732H28.8034ZM31.6178 17.1048C31.5215 17.5861 31.3169 17.9231 31.0281 18.1157C30.7272 18.3202 30.2699 18.4406 29.6682 18.4767L29.4757 18.4887V19.283H31.4252V25.6732H32.4361V17.1048H31.6178ZM34.7274 24.7586C34.7515 24.3253 34.8839 23.9523 35.1246 23.6514C35.3532 23.3506 35.7383 23.0377 36.2678 22.7127L37.1824 22.1832C38.4821 21.4371 39.132 20.4984 39.132 19.3913C39.132 18.6692 38.8792 18.0796 38.3738 17.5982C37.8684 17.1409 37.2065 16.9122 36.4002 16.9122C35.5096 16.9122 34.8117 17.1529 34.3183 17.6343C33.8128 18.1157 33.5721 18.8016 33.5841 19.6681H34.583C34.583 18.4406 35.1727 17.8268 36.3761 17.8268C36.9056 17.8268 37.3148 17.9712 37.6156 18.2601C37.9165 18.5489 38.0729 18.9219 38.0729 19.3913C38.0729 19.8245 37.9526 20.1976 37.724 20.4984C37.4953 20.8113 37.1102 21.1242 36.5687 21.4371L35.4856 22.0629C34.8357 22.448 34.3664 22.8812 34.1016 23.3867C33.8248 23.8921 33.6684 24.5058 33.6203 25.2038L33.5962 25.6732H39.2523V24.7586H34.7274Z" fill="black"/>
</g>
<g filter="url(#filter0_d_426_461)">
<path d="M191.983 85.8652L47.5724 85.8652C40.0399 85.8652 33.9336 91.9715 33.9336 99.504L33.9336 177.325C33.9336 184.858 40.0399 190.964 47.5724 190.964H191.983C199.516 190.964 205.622 184.858 205.622 177.325V99.504C205.622 91.9715 199.516 85.8652 191.983 85.8652Z" fill="#224AFA"/>
<path d="M51.5835 107.527L51.5835 176.523C51.5835 178.295 53.0203 179.732 54.7926 179.732H61.2109C62.9832 179.732 64.42 178.295 64.42 176.523V107.527C64.42 105.754 62.9832 104.318 61.2109 104.318H54.7926C53.0203 104.318 51.5835 105.754 51.5835 107.527Z" fill="white" fill-opacity="0.4"/>
<path d="M78.8613 141.223V176.523C78.8613 178.295 80.2981 179.732 82.0705 179.732H88.4887C90.2611 179.732 91.6979 178.295 91.6979 176.523V141.223C91.6979 139.45 90.2611 138.013 88.4887 138.013H82.0705C80.2981 138.013 78.8613 139.45 78.8613 141.223Z" fill="white" fill-opacity="0.2"/>
<path d="M106.139 125.177V176.523C106.139 178.295 107.576 179.732 109.348 179.732H115.767C117.539 179.732 118.976 178.295 118.976 176.523V125.177C118.976 123.405 117.539 121.968 115.767 121.968H109.348C107.576 121.968 106.139 123.405 106.139 125.177Z" fill="white" fill-opacity="0.4"/>
<path d="M133.417 141.223V176.523C133.417 178.296 134.854 179.732 136.626 179.732H143.044C144.817 179.732 146.254 178.296 146.254 176.523V141.223C146.254 139.45 144.817 138.014 143.044 138.014H136.626C134.854 138.014 133.417 139.45 133.417 141.223Z" fill="white" fill-opacity="0.2"/>
<path d="M160.694 168.5V176.523C160.694 178.296 162.131 179.732 163.903 179.732H170.322C172.094 179.732 173.531 178.296 173.531 176.523V168.5C173.531 166.728 172.094 165.291 170.322 165.291H163.903C162.131 165.291 160.694 166.728 160.694 168.5Z" fill="white" fill-opacity="0.2"/>
<path d="M187.972 141.223V176.523C187.972 178.296 189.409 179.732 191.181 179.732H197.6C199.372 179.732 200.809 178.296 200.809 176.523V141.223C200.809 139.45 199.372 138.014 197.6 138.014H191.181C189.409 138.014 187.972 139.45 187.972 141.223Z" fill="white" fill-opacity="0.4"/>
</g>
<path d="M90.4385 243.75V244.97H94.3215V255.175H95.7175V244.97H99.6005V243.75H90.4385ZM103.331 246.767C102.112 246.767 101.213 247.296 100.668 248.355V246.895H99.4481V255.175H100.732V250.457C100.732 249.687 100.956 249.077 101.438 248.66C101.919 248.243 102.577 248.018 103.444 248.018H103.764V246.783C103.684 246.783 103.54 246.767 103.331 246.767ZM111.171 254.132C110.866 254.132 110.722 254.003 110.722 253.731V249.109C110.722 247.505 109.679 246.703 107.609 246.703C105.459 246.703 104.336 247.617 104.239 249.446H105.523C105.555 248.837 105.732 248.419 106.053 248.179C106.373 247.938 106.887 247.81 107.609 247.81C108.283 247.81 108.748 247.922 109.037 248.115C109.326 248.323 109.47 248.66 109.47 249.109C109.47 249.783 109.037 250.152 108.171 250.249L106.983 250.377C104.929 250.602 103.918 251.452 103.918 252.944C103.918 253.714 104.175 254.324 104.689 254.741C105.202 255.159 105.924 255.367 106.839 255.367C108.058 255.367 108.957 254.934 109.534 254.035C109.599 254.838 110.064 255.223 110.93 255.223C111.187 255.223 111.412 255.207 111.636 255.175V254.132H111.171ZM106.903 254.276C106.357 254.276 105.94 254.164 105.667 253.923C105.379 253.682 105.25 253.345 105.25 252.912C105.25 252.479 105.395 252.142 105.683 251.901C105.972 251.677 106.47 251.516 107.176 251.42L108.379 251.276C108.861 251.227 109.23 251.115 109.47 250.923V251.901C109.47 252.672 109.214 253.249 108.7 253.65C108.187 254.067 107.577 254.276 106.903 254.276ZM116.123 255.367C117.053 255.367 117.856 255.094 118.498 254.549C119.139 254.003 119.541 253.265 119.685 252.335H118.369C118.273 252.928 118.016 253.394 117.599 253.714C117.182 254.051 116.684 254.212 116.123 254.212C115.369 254.212 114.759 253.939 114.31 253.378C113.86 252.832 113.636 252.046 113.636 251.035C113.636 250.024 113.86 249.238 114.31 248.692C114.759 248.147 115.353 247.858 116.123 247.858C116.684 247.858 117.166 248.018 117.583 248.339C118 248.66 118.257 249.125 118.353 249.703H119.685C119.557 248.772 119.171 248.05 118.546 247.505C117.904 246.975 117.102 246.703 116.123 246.703C114.951 246.703 114.021 247.104 113.347 247.874C112.641 248.66 112.288 249.719 112.288 251.035C112.288 252.351 112.641 253.394 113.347 254.18C114.053 254.982 114.968 255.367 116.123 255.367ZM128.101 255.175L124.731 249.88L127.876 246.895H126.175L122.34 250.602V243.75H121.057V255.175H122.34V252.11L123.817 250.73L126.609 255.175H128.101ZM136.273 250.329C135.792 251.741 135.39 252.928 135.086 253.923C134.7 252.768 134.315 251.564 133.898 250.345L132.727 246.895H131.315L134.428 255.447L134.139 256.218C133.866 256.908 133.369 257.245 132.631 257.245H131.876V258.32C132.149 258.352 132.406 258.368 132.647 258.368C133.337 258.368 133.898 258.239 134.331 257.951C134.749 257.662 135.086 257.18 135.342 256.474L138.84 246.895H137.444L136.273 250.329ZM145.888 254.18C146.626 253.41 147.011 252.351 147.011 251.035C147.011 249.719 146.626 248.676 145.888 247.89C145.118 247.104 144.155 246.703 143 246.703C141.829 246.703 140.866 247.104 140.112 247.89C139.358 248.676 138.989 249.719 138.989 251.035C138.989 252.351 139.358 253.41 140.112 254.18C140.866 254.982 141.829 255.367 143 255.367C144.155 255.367 145.118 254.982 145.888 254.18ZM141.059 253.361C140.577 252.816 140.336 252.03 140.336 251.035C140.336 250.04 140.577 249.254 141.059 248.692C141.54 248.147 142.182 247.858 143 247.858C143.802 247.858 144.46 248.147 144.942 248.692C145.423 249.254 145.664 250.04 145.664 251.035C145.664 252.03 145.423 252.816 144.942 253.361C144.46 253.939 143.802 254.212 143 254.212C142.182 254.212 141.54 253.939 141.059 253.361ZM153.763 251.58C153.763 252.447 153.522 253.089 153.072 253.538C152.607 253.987 152.077 254.212 151.483 254.212C150.216 254.212 149.59 253.602 149.59 252.367V246.895H148.306V252.495C148.306 253.41 148.563 254.116 149.077 254.613C149.59 255.126 150.296 255.367 151.227 255.367C152.318 255.367 153.185 254.902 153.827 253.939V255.175H155.046V246.895H153.763V251.58ZM160.855 246.767C159.635 246.767 158.737 247.296 158.191 248.355V246.895H156.972V255.175H158.255V250.457C158.255 249.687 158.48 249.077 158.962 248.66C159.443 248.243 160.101 248.018 160.967 248.018H161.288V246.783C161.208 246.783 161.063 246.767 160.855 246.767ZM97.2443 276.227C98.2712 276.227 99.0735 276.018 99.6511 275.585C100.229 275.151 100.534 274.542 100.534 273.756C100.534 273.082 100.309 272.568 99.8597 272.183C99.4104 271.814 98.6884 271.525 97.6775 271.317L96.9394 271.172C96.3297 271.044 95.9124 270.899 95.6557 270.707C95.399 270.53 95.2706 270.258 95.2706 269.888C95.2706 269.503 95.415 269.215 95.7199 268.99C96.0087 268.781 96.4419 268.669 97.0035 268.669C97.6935 268.669 98.207 268.797 98.544 269.038C98.8649 269.295 99.0574 269.712 99.0895 270.306H100.373C100.309 268.476 99.1858 267.562 97.0035 267.562C96.0729 267.562 95.3348 267.787 94.7893 268.204C94.2437 268.621 93.987 269.199 93.987 269.905C93.987 271.22 94.8374 272.023 96.5703 272.343L97.3405 272.488C98.0465 272.632 98.5439 272.793 98.8167 272.985C99.0895 273.178 99.2339 273.467 99.2339 273.836C99.2339 274.702 98.56 275.119 97.2443 275.119C96.5062 275.119 95.9767 274.991 95.6397 274.734C95.3027 274.478 95.0941 274.028 95.03 273.403H93.7303C93.8586 275.296 95.03 276.227 97.2443 276.227ZM105.874 267.562C104.638 267.562 103.691 268.059 103.034 269.038V267.754H101.814V279.179H103.098V274.847C103.756 275.777 104.686 276.227 105.874 276.227C107.029 276.227 107.976 275.841 108.682 275.039C109.372 274.253 109.725 273.21 109.725 271.894C109.725 270.578 109.372 269.535 108.682 268.733C107.976 267.963 107.029 267.562 105.874 267.562ZM105.713 275.071C104.895 275.071 104.253 274.798 103.772 274.221C103.29 273.675 103.05 272.889 103.05 271.894C103.05 270.899 103.29 270.113 103.772 269.552C104.253 269.006 104.895 268.717 105.713 268.717C106.531 268.717 107.173 269.006 107.655 269.552C108.136 270.097 108.377 270.867 108.377 271.83C108.377 272.825 108.12 273.627 107.639 274.205C107.157 274.782 106.515 275.071 105.713 275.071ZM118.468 271.894C118.468 270.659 118.131 269.632 117.457 268.797C116.783 267.979 115.852 267.562 114.665 267.562C113.51 267.562 112.595 267.963 111.905 268.749C111.199 269.552 110.846 270.595 110.846 271.894C110.846 273.226 111.199 274.285 111.921 275.055C112.627 275.841 113.542 276.227 114.697 276.227C115.628 276.227 116.398 275.986 117.008 275.504C117.617 275.023 118.035 274.349 118.259 273.515H116.927C116.607 274.542 115.868 275.055 114.729 275.055C113.959 275.055 113.365 274.831 112.932 274.381C112.483 273.932 112.242 273.242 112.178 272.343H118.468V271.894ZM114.665 268.733C115.355 268.733 115.917 268.974 116.35 269.423C116.767 269.872 117.024 270.466 117.088 271.188H112.21C112.306 270.402 112.579 269.792 113.012 269.375C113.43 268.958 113.991 268.733 114.665 268.733ZM123.81 267.562C122.703 267.562 121.837 268.043 121.211 268.99V267.754H119.991V276.034H121.275V271.349C121.275 270.498 121.5 269.84 121.965 269.391C122.414 268.942 122.944 268.717 123.554 268.717C124.805 268.717 125.447 269.343 125.447 270.562V276.034H126.731V270.434C126.731 269.535 126.474 268.829 125.96 268.316C125.447 267.819 124.725 267.562 123.81 267.562ZM134.882 268.942C134.208 268.027 133.293 267.562 132.106 267.562C130.919 267.562 129.988 267.963 129.314 268.733C128.608 269.519 128.255 270.578 128.255 271.894C128.255 273.21 128.608 274.253 129.314 275.039C130.004 275.841 130.935 276.227 132.106 276.227C133.325 276.227 134.272 275.745 134.946 274.75V276.034H136.165V264.609H134.882V268.942ZM130.325 274.253C129.843 273.707 129.603 272.953 129.603 271.958C129.603 270.964 129.843 270.177 130.325 269.6C130.806 269.022 131.464 268.717 132.266 268.717C133.069 268.717 133.726 269.006 134.208 269.568C134.689 270.145 134.93 270.915 134.93 271.894C134.93 272.889 134.689 273.675 134.208 274.221C133.726 274.798 133.069 275.071 132.266 275.071C131.448 275.071 130.806 274.798 130.325 274.253ZM139.405 266.503V264.93H138.041V266.503H139.405ZM139.373 276.034V267.754H138.089V276.034H139.373ZM145.121 267.562C144.013 267.562 143.147 268.043 142.521 268.99V267.754H141.302V276.034H142.585V271.349C142.585 270.498 142.81 269.84 143.275 269.391C143.725 268.942 144.254 268.717 144.864 268.717C146.115 268.717 146.757 269.343 146.757 270.562V276.034H148.041V270.434C148.041 269.535 147.784 268.829 147.271 268.316C146.757 267.819 146.035 267.562 145.121 267.562ZM156.258 268.958C155.584 268.027 154.637 267.562 153.418 267.562C152.23 267.562 151.299 267.963 150.625 268.733C149.919 269.519 149.566 270.578 149.566 271.894C149.566 273.21 149.919 274.253 150.625 275.039C151.315 275.841 152.246 276.227 153.418 276.227C154.605 276.227 155.536 275.793 156.194 274.911V275.713C156.194 277.43 155.327 278.28 153.626 278.28C152.278 278.28 151.54 277.767 151.379 276.708H150.095C150.176 277.542 150.529 278.2 151.154 278.665C151.764 279.147 152.599 279.371 153.626 279.371C154.862 279.371 155.809 279.051 156.482 278.393C157.14 277.751 157.477 276.852 157.477 275.713V267.754H156.258V268.958ZM153.578 275.071C152.775 275.071 152.117 274.782 151.636 274.205C151.154 273.627 150.914 272.857 150.914 271.894C150.914 270.931 151.154 270.161 151.636 269.584C152.117 269.006 152.775 268.717 153.578 268.717C154.38 268.717 155.038 269.006 155.52 269.568C156.001 270.145 156.242 270.915 156.242 271.894C156.242 272.889 156.001 273.659 155.52 274.221C155.038 274.798 154.38 275.071 153.578 275.071Z" fill="black"/>
<path d="M90.9252 376.939C92.4022 376.939 93.5995 375.741 93.5995 374.264C93.5995 372.787 92.4022 371.59 90.9252 371.59C89.4483 371.59 88.251 372.787 88.251 374.264C88.251 375.741 89.4483 376.939 90.9252 376.939Z" fill="#D9D9D9"/>
<path d="M116.598 376.805C118.075 376.805 119.272 375.608 119.272 374.131C119.272 372.654 118.075 371.457 116.598 371.457C115.121 371.457 113.924 372.654 113.924 374.131C113.924 375.608 115.121 376.805 116.598 376.805Z" fill="#D9D9D9"/>
<path d="M142.271 376.806C143.748 376.806 144.946 375.608 144.946 374.131C144.946 372.654 143.748 371.457 142.271 371.457C140.794 371.457 139.597 372.654 139.597 374.131C139.597 375.608 140.794 376.806 142.271 376.806Z" fill="#5D5E68"/>
<path d="M107.506 441.256H24.0685C21.8531 441.256 20.0571 443.052 20.0571 445.267V466.127C20.0571 468.342 21.8531 470.138 24.0685 470.138H107.506C109.721 470.138 111.517 468.342 111.517 466.127V445.267C111.517 443.052 109.721 441.256 107.506 441.256Z" fill="#E4E5EB"/>
<path d="M44.588 453.56C44.588 455.023 44.5976 456.207 44.6169 457.102C44.3184 456.602 43.8467 455.822 43.192 454.782L40.92 451.249H39.938V458.104H40.737V455.793C40.737 454.33 40.7274 453.155 40.7081 452.25C40.997 452.761 41.4783 453.531 42.133 454.57L44.4051 458.104H45.3871V451.249H44.588V453.56ZM50.9252 455.62C50.9252 454.879 50.7231 454.262 50.3187 453.762C49.9144 453.271 49.356 453.02 48.6435 453.02C47.9504 453.02 47.4016 453.261 46.9876 453.733C46.564 454.214 46.3522 454.84 46.3522 455.62C46.3522 456.419 46.564 457.054 46.9972 457.516C47.4208 457.988 47.9696 458.219 48.6628 458.219C49.2212 458.219 49.6833 458.075 50.0491 457.786C50.415 457.497 50.6653 457.093 50.8001 456.592H50.001C49.8085 457.208 49.3656 457.516 48.6821 457.516C48.2199 457.516 47.8637 457.382 47.6038 457.112C47.3342 456.843 47.1898 456.429 47.1513 455.889H50.9252V455.62ZM48.6435 453.723C49.0575 453.723 49.3945 453.868 49.6544 454.137C49.9047 454.407 50.0588 454.763 50.0973 455.196H47.1705C47.2283 454.725 47.392 454.359 47.6519 454.108C47.9022 453.858 48.2392 453.723 48.6435 453.723ZM56.9287 455.379C56.6206 456.38 56.4473 456.977 56.3992 457.17C56.3896 457.151 56.2066 456.554 55.8601 455.379L55.1669 453.136H54.3582L53.665 455.379C53.511 455.861 53.3377 456.457 53.1355 457.189C52.943 456.534 52.7697 455.928 52.5964 455.379L51.8936 453.136H51.0657L52.7215 458.104H53.5302L54.2523 455.803C54.4449 455.206 54.6085 454.647 54.7625 454.118C54.8396 454.426 55.0129 454.994 55.2632 455.803L55.9949 458.104H56.8036L58.4595 453.136H57.6315L56.9287 455.379ZM63.0975 453.136H62.077V451.73H61.3068V453.136H60.4885V453.81H61.3068V457.102C61.3068 457.796 61.7208 458.133 62.5487 458.133C62.7028 458.133 62.8856 458.123 63.0975 458.104V457.459H62.645C62.2599 457.459 62.077 457.324 62.077 457.035V453.81H63.0975V453.136ZM67.7162 457.507C68.1591 457.045 68.3902 456.409 68.3902 455.62C68.3902 454.83 68.1591 454.205 67.7162 453.733C67.2541 453.261 66.6765 453.02 65.9833 453.02C65.2805 453.02 64.7028 453.261 64.2503 453.733C63.7979 454.205 63.5765 454.83 63.5765 455.62C63.5765 456.409 63.7979 457.045 64.2503 457.507C64.7028 457.988 65.2805 458.219 65.9833 458.219C66.6765 458.219 67.2541 457.988 67.7162 457.507ZM64.8184 457.016C64.5295 456.688 64.3851 456.217 64.3851 455.62C64.3851 455.023 64.5295 454.551 64.8184 454.214C65.1072 453.887 65.4923 453.714 65.9833 453.714C66.4647 453.714 66.8594 453.887 67.1482 454.214C67.437 454.551 67.5815 455.023 67.5815 455.62C67.5815 456.217 67.437 456.688 67.1482 457.016C66.8594 457.362 66.4647 457.526 65.9833 457.526C65.4923 457.526 65.1072 457.362 64.8184 457.016ZM75.2039 457.478C75.021 457.478 74.9344 457.401 74.9344 457.237V454.465C74.9344 453.502 74.3086 453.02 73.0666 453.02C71.7766 453.02 71.1026 453.569 71.0449 454.667H71.8151C71.8343 454.301 71.9402 454.051 72.1328 453.906C72.3253 453.762 72.6334 453.685 73.0666 453.685C73.471 453.685 73.7502 453.752 73.9235 453.868C74.0968 453.993 74.1834 454.195 74.1834 454.465C74.1834 454.869 73.9235 455.09 73.4036 455.148L72.6912 455.225C71.4589 455.36 70.8523 455.87 70.8523 456.766C70.8523 457.228 71.0064 457.594 71.3144 457.844C71.6225 458.094 72.0558 458.219 72.6045 458.219C73.3362 458.219 73.8753 457.959 74.2219 457.42C74.2604 457.902 74.5396 458.133 75.0595 458.133C75.2136 458.133 75.3484 458.123 75.4831 458.104V457.478H75.2039ZM72.643 457.565C72.3157 457.565 72.0654 457.497 71.9017 457.353C71.7284 457.208 71.6514 457.006 71.6514 456.746C71.6514 456.486 71.7381 456.284 71.9114 456.14C72.0846 456.005 72.3831 455.909 72.8067 455.851L73.5287 455.764C73.8176 455.735 74.039 455.668 74.1834 455.552V456.14C74.1834 456.602 74.0294 456.948 73.7213 457.189C73.4132 457.439 73.0474 457.565 72.643 457.565ZM78.5976 453.02C77.8563 453.02 77.2883 453.319 76.8935 453.906V453.136H76.1619V459.991H76.932V457.391C77.3268 457.95 77.8851 458.219 78.5976 458.219C79.2907 458.219 79.8588 457.988 80.2824 457.507C80.6964 457.035 80.9081 456.409 80.9081 455.62C80.9081 454.83 80.6964 454.205 80.2824 453.723C79.8588 453.261 79.2907 453.02 78.5976 453.02ZM78.5013 457.526C78.0103 457.526 77.6252 457.362 77.3364 457.016C77.0476 456.688 76.9031 456.217 76.9031 455.62C76.9031 455.023 77.0476 454.551 77.3364 454.214C77.6252 453.887 78.0103 453.714 78.5013 453.714C78.9923 453.714 79.3774 453.887 79.6662 454.214C79.9551 454.542 80.0994 455.004 80.0994 455.581C80.0994 456.178 79.9454 456.66 79.6566 457.006C79.3678 457.353 78.9827 457.526 78.5013 457.526ZM84.2577 453.02C83.5164 453.02 82.9484 453.319 82.5536 453.906V453.136H81.822V459.991H82.5921V457.391C82.9869 457.95 83.5452 458.219 84.2577 458.219C84.9508 458.219 85.5189 457.988 85.9425 457.507C86.3565 457.035 86.5682 456.409 86.5682 455.62C86.5682 454.83 86.3565 454.205 85.9425 453.723C85.5189 453.261 84.9508 453.02 84.2577 453.02ZM84.1614 457.526C83.6704 457.526 83.2853 457.362 82.9965 457.016C82.7077 456.688 82.5632 456.217 82.5632 455.62C82.5632 455.023 82.7077 454.551 82.9965 454.214C83.2853 453.887 83.6704 453.714 84.1614 453.714C84.6524 453.714 85.0375 453.887 85.3263 454.214C85.6152 454.542 85.7596 455.004 85.7596 455.581C85.7596 456.178 85.6055 456.66 85.3167 457.006C85.0279 457.353 84.6428 457.526 84.1614 457.526Z" fill="black"/>
<path d="M208.594 441.256H125.156C122.941 441.256 121.145 443.052 121.145 445.267V466.127C121.145 468.342 122.941 470.138 125.156 470.138H208.594C210.809 470.138 212.605 468.342 212.605 466.127V445.267C212.605 443.052 210.809 441.256 208.594 441.256Z" fill="#224AFA"/>
<path d="M155.571 458.258C156.373 458.258 156.999 458.084 157.456 457.719C157.913 457.362 158.146 456.871 158.146 456.246C158.146 455.735 157.97 455.321 157.641 455.013C157.304 454.705 156.758 454.464 156.004 454.291L155.402 454.156C154.76 454.022 154.343 453.858 154.127 453.665C153.894 453.482 153.79 453.222 153.79 452.886C153.79 452.558 153.918 452.298 154.175 452.106C154.44 451.923 154.809 451.827 155.29 451.827C155.932 451.827 156.381 451.942 156.662 452.173C156.943 452.404 157.103 452.76 157.143 453.242H157.97C157.962 452.953 157.913 452.683 157.817 452.433C157.721 452.192 157.576 451.971 157.384 451.759C157.183 451.547 156.903 451.384 156.542 451.268C156.189 451.153 155.771 451.095 155.29 451.095C154.584 451.095 154.014 451.259 153.589 451.586C153.164 451.913 152.955 452.346 152.955 452.886C152.955 453.444 153.124 453.868 153.477 454.176C153.822 454.484 154.343 454.715 155.033 454.869L155.643 455.004C156.253 455.138 156.678 455.302 156.927 455.485C157.183 455.668 157.304 455.918 157.304 456.246C157.304 456.669 157.151 456.987 156.854 457.199C156.558 457.42 156.132 457.526 155.571 457.526C154.247 457.526 153.581 456.968 153.557 455.841H152.723C152.723 456.65 152.979 457.247 153.485 457.651C153.982 458.055 154.68 458.258 155.571 458.258ZM159.751 452.385V451.441H158.932V452.385H159.751ZM159.735 458.104V453.136H158.964V458.104H159.735ZM164.661 453.858C164.259 453.3 163.69 453.02 162.96 453.02C162.246 453.02 161.692 453.261 161.283 453.723C160.858 454.195 160.649 454.83 160.649 455.62C160.649 456.409 160.858 457.035 161.283 457.507C161.7 457.988 162.254 458.219 162.96 458.219C163.674 458.219 164.227 457.959 164.629 457.43V457.911C164.629 458.941 164.107 459.451 163.088 459.451C162.278 459.451 161.837 459.143 161.74 458.508H160.97C161.018 459.009 161.227 459.403 161.604 459.683C161.965 459.971 162.47 460.106 163.088 460.106C163.826 460.106 164.396 459.914 164.797 459.519C165.19 459.134 165.399 458.595 165.399 457.911V453.136H164.661V453.858ZM163.056 457.526C162.575 457.526 162.182 457.353 161.893 457.006C161.604 456.66 161.46 456.197 161.46 455.62C161.46 455.042 161.604 454.58 161.893 454.233C162.182 453.887 162.575 453.714 163.056 453.714C163.537 453.714 163.931 453.887 164.219 454.224C164.508 454.57 164.653 455.032 164.653 455.62C164.653 456.217 164.508 456.679 164.219 457.016C163.931 457.362 163.537 457.526 163.056 457.526ZM168.84 453.02C168.175 453.02 167.661 453.309 167.284 453.877V453.136H166.554V458.104H167.324V455.292C167.324 454.782 167.453 454.387 167.733 454.118C168.006 453.848 168.319 453.714 168.688 453.714C169.442 453.714 169.827 454.089 169.827 454.821V458.104H170.598V454.744C170.598 454.205 170.437 453.781 170.132 453.473C169.827 453.174 169.394 453.02 168.84 453.02ZM174.368 452.385V451.441H173.55V452.385H174.368ZM174.352 458.104V453.136H173.582V458.104H174.352ZM177.802 453.02C177.136 453.02 176.615 453.309 176.238 453.877V453.136H175.508V458.104H176.278V455.292C176.278 454.782 176.414 454.387 176.695 454.118C176.96 453.848 177.281 453.714 177.65 453.714C178.396 453.714 178.781 454.089 178.781 454.821V458.104H179.551V454.744C179.551 454.205 179.399 453.781 179.094 453.473C178.781 453.174 178.348 453.02 177.802 453.02Z" fill="white"/>
<defs>
<filter id="filter0_d_426_461" x="8.93359" y="74.8652" width="221.688" height="155.099" filterUnits="userSpaceOnUse" color-interpolation-filters="sRGB">
<feFlood flood-opacity="0" result="BackgroundImageFix"/>
<feColorMatrix in="SourceAlpha" type="matrix" values="0 0 0 0 0 0 0 0 0 0 0 0 0 0 0 0 0 0 127 0" result="hardAlpha"/>
<feOffset dy="14"/>
<feGaussianBlur stdDeviation="12.5"/>
<feComposite in2="hardAlpha" operator="out"/>
<feColorMatrix type="matrix" values="0 0 0 0 0 0 0 0 0 0 0 0 0 0 0 0 0 0 0.25 0"/>
<feBlend mode="normal" in2="BackgroundImageFix" result="effect1_dropShadow_426_461"/>
<feBlend mode="normal" in="SourceGraphic" in2="effect1_dropShadow_426_461" result="shape"/>
</filter>
</defs>
</svg>
